<?xml version="1.0" encoding="UTF-8" standalone="no"?>
<!DOCTYPE svg PUBLIC "-//W3C//DTD SVG 1.1//EN" "http://www.w3.org/Graphics/SVG/1.1/DTD/svg11.dtd">
<svg width="100%" height="100%" viewBox="0 0 800 800" version="1.1" xmlns="http://www.w3.org/2000/svg" xmlns:xlink="http://www.w3.org/1999/xlink" xml:space="preserve" xmlns:serif="http://www.serif.com/" style="fill-rule:evenodd;clip-rule:evenodd;stroke-linejoin:round;stroke-miterlimit:2;">
    <g id="icons" transform="matrix(40,0,0,40,-1780,-291160)">
        <g id="Dribbble-Light-Preview">
            <g id="icons1" serif:id="icons">
                <path id="apple---173-" serif:id="apple-[#173]" d="M57.571,7282.19C58.3,7281.35 58.791,7280.17 58.657,7279C57.606,7279.04 56.335,7279.67 55.582,7280.52C54.905,7281.26 54.315,7282.46 54.474,7283.61C55.646,7283.7 56.842,7283.04 57.571,7282.19M60.199,7289.62C60.228,7292.65 62.97,7293.66 63,7293.67C62.978,7293.74 62.562,7295.11 61.556,7296.52C60.685,7297.74 59.782,7298.95 58.36,7298.97C56.962,7299 56.512,7298.18 54.913,7298.18C53.316,7298.18 52.816,7298.95 51.494,7299C50.12,7299.05 49.074,7297.68 48.197,7296.47C46.403,7293.98 45.033,7289.45 46.873,7286.39C47.788,7284.87 49.421,7283.91 51.194,7283.88C52.542,7283.86 53.815,7284.75 54.639,7284.75C55.464,7284.75 57.011,7283.68 58.637,7283.84C59.317,7283.86 61.228,7284.1 62.455,7285.82C62.356,7285.88 60.175,7287.1 60.199,7289.62"/>
            </g>
        </g>
    </g>
</svg>
