<svg xmlns="http://www.w3.org/2000/svg" viewBox="0 0 24 24" fill="none" stroke="#e11d48" stroke-width="2" stroke-linecap="round" stroke-linejoin="round">
  <!-- Fish body (more curved) -->
  <path d="M6.5 12c.94-3.46 4.94-6 8.5-6 0 0 3 0 3 3s-2 3-2 3 1-1 1-3c0-3-7-3-10 6-3-9-10-9-10-6 0 2 1 3 1 3s-2 0-2-3 3-3 3-3c3.56 0 7.56 2.54 8.5 6" fill="#e11d48" fill-opacity="0.2" />
  <!-- Fish eye -->
  <circle cx="19" cy="11.5" r="0.5" fill="#000" />
  <!-- Fish tail (more defined) -->
  <path d="M2 9c-1 1-1.5 3-1.5 3s0.5 2 1.5 3" />
  <!-- Fish fins -->
  <path d="M10 8c0 0 0.5-1.5 1.5-1.5" />
  <path d="M10 16c0 0 0.5 1.5 1.5 1.5" />
  <!-- Fish mouth -->
  <path d="M18 12v.5" />
  <path d="M18 13.5v.5" />
</svg>