<?xml version="1.0" encoding="UTF-8" standalone="no"?>
<!DOCTYPE svg PUBLIC "-//W3C//DTD SVG 1.1//EN" "http://www.w3.org/Graphics/SVG/1.1/DTD/svg11.dtd">
<svg width="100%" height="100%" viewBox="0 0 24 24" version="1.1" xmlns="http://www.w3.org/2000/svg" xmlns:xlink="http://www.w3.org/1999/xlink" xml:space="preserve" xmlns:serif="http://www.serif.com/" style="fill-rule:evenodd;clip-rule:evenodd;stroke-linecap:round;stroke-linejoin:round;">
    <g transform="matrix(-1,0,0,1,23.999,0)">
        <path d="M6.5,12C7.44,8.54 11.44,6 15,6C18.56,6 21.906,9.438 22.846,12.898C21.906,16.368 18.56,18 15,18C11.44,18 7.44,15.47 6.5,12Z" style="fill:none;fill-rule:nonzero;stroke:rgb(255,0,56);stroke-width:2px;"/>
    </g>
    <g transform="matrix(-1,0,0,1,23.999,0)">
        <path d="M18,12L18,12.5" style="fill:none;fill-rule:nonzero;stroke:rgb(255,0,56);stroke-width:2px;"/>
    </g>
    <g transform="matrix(-1,0,0,1,23.999,0)">
        <path d="M16,17.93C13.334,14.44 13.334,9.56 16,6.07" style="fill:none;fill-rule:nonzero;stroke:rgb(255,0,56);stroke-width:2px;"/>
    </g>
    <g transform="matrix(-1,0,0,1,23.999,0)">
        <path d="M7,10.67C7,8 4.048,5.756 1.198,5.286C1.96,6.804 3.512,10.518 2.96,12C3.966,14.562 1.709,17.557 1.735,18.591C4.585,18.121 7,16 7,13.33" style="fill:none;fill-rule:nonzero;stroke:rgb(255,0,56);stroke-width:2px;"/>
    </g>
    <g transform="matrix(-1,0,0,1,23.999,0)">
        <path d="M9.063,8.321C8.803,6.941 7.461,4.943 6.291,3.703L13.069,3.47C14.045,3.466 15.619,3.708 15.78,4.67L16,6" style="fill:none;fill-rule:nonzero;stroke:rgb(255,0,56);stroke-width:2px;"/>
    </g>
    <g transform="matrix(-1,0,0,1,23.999,0)">
        <path d="M13.115,18.054L11.924,18.846L7.032,20.418L9,16.389" style="fill:none;fill-rule:nonzero;stroke:rgb(255,0,56);stroke-width:2px;"/>
        <g transform="matrix(1,0,0,1,6.02894,1.66867)">
            <path d="M11.582,16.357L8.967,20.877L6.982,18.124L9,16.389" style="fill:none;fill-rule:nonzero;stroke:rgb(255,0,56);stroke-width:2px;"/>
        </g>
    </g>
</svg>
