<?xml version="1.0" encoding="UTF-8" standalone="no"?>
<!DOCTYPE svg PUBLIC "-//W3C//DTD SVG 1.1//EN" "http://www.w3.org/Graphics/SVG/1.1/DTD/svg11.dtd">
<svg width="100%" height="100%" viewBox="0 0 800 800" version="1.1" xmlns="http://www.w3.org/2000/svg" xmlns:xlink="http://www.w3.org/1999/xlink" xml:space="preserve" xmlns:serif="http://www.serif.com/" style="fill-rule:evenodd;clip-rule:evenodd;stroke-linejoin:round;stroke-miterlimit:2;">
    <g transform="matrix(1.56249,0,0,1.56249,0,0)">
        <path d="M259.345,110.181C259.269,109.392 259.233,108.603 259.233,107.812C259.233,96.234 266.817,86.815 276.136,86.815C285.673,86.815 293.143,96.038 293.143,107.812C293.143,110.478 292.742,113.048 291.995,115.422C294.79,110.98 296.407,105.39 296.407,99.53C296.407,85.451 287.407,73.995 276.347,73.995C265.284,73.995 256.287,85.45 256.287,99.53C256.287,102.991 256.829,106.379 257.902,109.629C258.369,109.807 258.851,109.992 259.345,110.181Z" style="fill:white;fill-rule:nonzero;"/>
    </g>
    <g transform="matrix(1.56249,0,0,1.56249,0,0)">
        <path d="M209.407,87.924C210.011,87.832 210.564,87.79 211.114,87.79C218.532,87.79 225.183,95.071 226.926,105.101C227.101,106.201 227.211,107.297 227.26,108.378C227.742,108.133 228.232,107.903 228.731,107.69C228.976,105.951 229.095,104.321 229.095,102.684C229.095,89.698 222.216,78.727 214.076,78.727C207.143,78.727 201.301,86.363 199.636,96.677C201.532,91.973 204.993,88.657 209.407,87.924Z" style="fill:white;fill-rule:nonzero;"/>
    </g>
    <g transform="matrix(1.56249,0,0,1.56249,0,0)">
        <path d="M349.093,349.859C350.958,341.951 354.668,321.759 351.156,297.334C346.718,266.464 303.281,170.34 295.806,159.607C291.446,160.216 279.86,166.911 270.464,172.34C259.568,178.635 248.298,185.147 240.635,187.359C239.035,187.812 237.362,188.036 235.638,188.036C224.439,188.036 212.318,178.568 204.503,171.11C203.138,185.582 195.425,203.945 187.08,213.383C181.809,219.428 177.098,233.237 172.542,246.593C168.322,258.96 163.959,271.75 158.617,280.185C147.808,297.027 141.608,329.74 149.473,348.344C153.279,357.362 167.093,368.012 179.28,377.406C194.185,388.897 207.056,398.819 208.476,408.825C210.133,420.656 203.841,427.213 197.549,430.322L213.51,448.585C215.976,448.959 221.915,449.676 231.222,449.676C242.108,449.676 254.192,448.724 267.129,446.842C298.892,442.137 321.015,415.962 325.39,410.404C325.413,403.041 325.638,370.281 327.786,360.038C328.62,356.093 331.823,349.491 343.922,349.491C345.803,349.488 347.594,349.653 349.093,349.859Z" style="fill:white;fill-rule:nonzero;"/>
    </g>
    <g transform="matrix(1.56249,0,0,1.56249,0,0)">
        <path d="M210.488,147.081C211.111,149.503 216.624,155.698 225.198,161.323C226.415,162.104 227.557,162.881 228.629,163.609C233.385,166.841 235.5,168.168 238.919,167.707C243.953,167.047 262.498,155.803 270.418,151.001L272.389,149.807C275.338,148.011 277.695,146.784 279.589,145.798C283.339,143.847 283.678,143.532 283.838,142.82C283.413,141.717 279.912,138.764 273.197,136.456C271.063,135.692 268.035,134.482 264.527,133.082C256.938,130.052 246.543,125.906 242.33,125.16C242.15,125.126 241.981,125.115 241.791,125.115C238.205,125.115 230.96,129.614 223.76,136.309C220.211,139.513 213.283,144.92 210.488,147.081Z" style="fill:rgb(230,150,41);fill-rule:nonzero;"/>
    </g>
    <g transform="matrix(1.56249,0,0,1.56249,0,0)">
        <path d="M147.149,395.532C144.03,390.31 141.334,385.797 139.879,383.548C134.141,374.617 124.183,364.641 119.437,364.641C119.021,364.641 118.802,364.738 118.66,364.822C116.127,366.264 113.998,370.659 111.937,374.906C109.09,380.781 105.862,387.441 99.901,391.052C95.491,393.728 88.749,395.19 82.233,396.607C77.596,397.614 66.74,399.969 66.23,402.169C65.527,405.137 66.181,408.202 67.011,412.082C67.988,416.66 69.207,422.356 68.169,429.349C67.437,433.735 66.106,437.924 64.815,441.976C63.022,447.613 60.989,454.006 62.742,455.971C64.904,457.88 77.949,459.99 87.473,461.533C99.445,463.47 111.824,465.475 119.405,468.651L121.414,469.497C134.993,475.203 160.268,485.826 173.036,485.826C174.198,485.826 175.188,485.732 175.987,485.552C178.189,484.07 187.518,477.368 189.271,469.128C191.665,458.509 181.933,446.123 175.922,439.684C169.25,432.519 156.477,411.14 147.149,395.532Z" style="fill:rgb(230,150,41);fill-rule:nonzero;"/>
    </g>
    <g transform="matrix(1.56249,0,0,1.56249,0,0)">
        <path d="M435.761,420.974L434.205,420.155C423.517,414.505 417.898,399.171 418.642,387.613C418.781,385.484 418.516,383.833 418.085,382.568C416.111,385.815 413.292,389.916 409.942,393.265C404.251,398.957 390.358,405.098 377.837,405.098C373.167,405.098 368.91,404.275 365.185,402.65C352.687,397.199 350.983,381.569 350.951,373.733C350.766,373.785 350.597,373.845 350.446,373.916C349.682,376.617 350.422,385.722 350.921,391.851C351.188,395.13 351.463,398.52 351.626,401.631C352.334,415.339 347.968,438.589 344.179,455.68C340.582,472.412 347.276,484.144 355.403,486.677C356.133,486.909 356.954,487.023 357.856,487.023C365.343,487.023 377.742,479.274 388.704,467.738C396.492,459.549 413.826,450.698 429.12,442.888C437.742,438.486 446.657,433.932 449.191,431.617C449.755,431.092 449.839,430.798 449.841,430.796C449.681,428.282 439.568,422.972 435.761,420.974Z" style="fill:rgb(230,150,41);fill-rule:nonzero;"/>
    </g>
    <g transform="matrix(1.56249,0,0,1.56249,0,0)">
        <path d="M461.071,411.093C446.057,404.946 439.634,396.785 440.255,384.608C440.895,370.396 432.832,359.988 429.003,355.875C431.316,347.038 438.076,316.469 429.01,289.916C419.267,261.496 389.52,218.091 358.827,175.424C346.262,157.902 345.668,138.854 344.981,116.799C344.323,95.763 343.581,71.919 331.85,45.412C319.095,16.55 293.501,0 261.628,0C242.667,0 223.204,5.926 208.227,16.257C177.557,37.424 181.611,83.573 184.294,114.108C184.662,118.29 185.007,122.24 185.209,125.612C186.995,155.52 185.37,171.284 183.245,176.075C181.87,179.206 175.102,188.116 167.939,197.551C160.531,207.309 152.132,218.367 145.248,228.672C137.034,241.073 130.403,260.027 123.991,278.356C119.299,291.767 114.867,304.436 110.553,312.011C102.376,326.575 104.411,340.156 106.109,346.433C103.013,348.583 98.541,352.819 94.766,360.799C90.203,370.535 80.945,375.766 61.694,379.468C52.847,381.278 46.747,384.998 43.557,390.524C38.915,398.567 41.444,408.672 43.75,415.58C47.158,425.731 45.034,432.157 41.173,443.826C40.283,446.517 39.274,449.567 38.252,452.928C36.642,458.236 37.223,463.059 39.974,467.269C47.244,478.382 68.46,482.302 90.3,484.882C103.34,486.43 117.612,491.645 131.416,496.69C144.941,501.632 158.927,506.744 171.639,508.295C173.571,508.538 175.485,508.659 177.33,508.659C196.524,508.659 205.196,495.924 207.946,490.692C214.84,489.285 238.619,484.78 263.127,484.174C287.596,483.477 311.27,488.309 317.977,489.809C320.085,493.845 325.644,503.062 334.504,507.813C339.374,510.475 346.151,512.001 353.092,512.001L353.094,512.001C360.507,512.001 374.61,510.248 385.772,498.504C396.905,486.708 424.721,471.645 445.033,460.648C449.566,458.194 453.806,455.897 457.524,453.826C468.934,447.501 475.16,438.464 474.605,429.032C474.141,421.194 468.955,414.322 461.071,411.093ZM276.345,73.995C287.406,73.995 296.405,85.45 296.405,99.53C296.405,105.389 294.788,110.979 291.993,115.422C292.738,113.048 293.141,110.478 293.141,107.812C293.141,96.038 285.671,86.815 276.134,86.815C266.814,86.815 259.231,96.234 259.231,107.812C259.231,108.603 259.27,109.392 259.343,110.181C258.849,109.993 258.368,109.807 257.898,109.629C256.825,106.379 256.283,102.991 256.283,99.53C256.284,85.451 265.282,73.995 276.345,73.995ZM242.329,125.164C246.543,125.908 256.935,130.056 264.526,133.086C268.034,134.486 271.065,135.696 273.196,136.46C279.911,138.768 283.413,141.721 283.837,142.824C283.678,143.537 283.338,143.851 279.588,145.802C277.694,146.787 275.338,148.013 272.388,149.811L270.417,151.005C262.497,155.808 243.952,167.053 238.918,167.711C235.498,168.171 233.383,166.843 228.628,163.613C227.555,162.883 226.414,162.107 225.197,161.327C216.624,155.7 211.109,149.507 210.487,147.085C213.282,144.925 220.21,139.517 223.757,136.314C230.957,129.619 238.202,125.12 241.788,125.12C241.978,125.117 242.15,125.13 242.329,125.164ZM214.073,78.724C222.215,78.724 229.092,89.694 229.092,102.681C229.092,104.319 228.974,105.948 228.728,107.687C228.229,107.9 227.739,108.132 227.257,108.375C227.208,107.292 227.096,106.198 226.923,105.098C225.181,95.068 218.529,87.787 211.111,87.787C210.562,87.787 210.01,87.829 209.404,87.921C204.991,88.656 201.529,91.97 199.632,96.672C201.299,86.359 207.142,78.724 214.073,78.724ZM189.271,469.128C187.518,477.369 178.188,484.07 175.987,485.552C175.188,485.732 174.199,485.826 173.036,485.826C160.268,485.826 134.993,475.203 121.414,469.497L119.405,468.651C111.822,465.473 99.444,463.471 87.473,461.533C77.948,459.99 64.905,457.88 62.742,455.971C60.989,454.005 63.022,447.613 64.815,441.976C66.106,437.924 67.439,433.735 68.169,429.349C69.205,422.356 67.988,416.658 67.011,412.082C66.182,408.201 65.527,405.137 66.23,402.169C66.74,399.97 77.596,397.615 82.233,396.607C88.751,395.19 95.493,393.728 99.901,391.052C105.862,387.441 109.09,380.782 111.937,374.906C113.998,370.659 116.127,366.264 118.66,364.822C118.803,364.736 119.021,364.641 119.437,364.641C124.183,364.641 134.141,374.616 139.879,383.548C141.334,385.797 144.03,390.308 147.149,395.532C156.478,411.141 169.251,432.519 175.922,439.683C181.933,446.123 191.664,458.508 189.271,469.128ZM327.787,360.037C325.642,370.28 325.415,403.04 325.391,410.403C321.016,415.961 298.893,442.135 267.13,446.841C254.192,448.721 242.111,449.675 231.223,449.675C221.916,449.675 215.977,448.956 213.511,448.584L197.55,430.321C203.842,427.212 210.134,420.655 208.477,408.824C207.057,398.819 194.186,388.896 179.281,377.405C167.094,368.011 153.28,357.363 149.474,348.343C141.609,329.741 147.809,297.028 158.618,280.184C163.96,271.75 168.323,258.959 172.543,246.592C177.099,233.236 181.811,219.426 187.081,213.382C195.426,203.944 203.138,185.581 204.504,171.109C212.318,178.567 224.44,188.035 235.639,188.035C237.363,188.035 239.037,187.81 240.636,187.358C248.298,185.145 259.567,178.634 270.465,172.339C279.861,166.91 291.447,160.215 295.807,159.606C303.282,170.34 346.719,266.464 351.157,297.333C354.669,321.758 350.959,341.949 349.094,349.858C347.593,349.652 345.804,349.487 343.924,349.487C331.824,349.488 328.621,356.092 327.787,360.037ZM449.194,431.621C446.661,433.936 437.745,438.49 429.123,442.892C413.828,450.7 396.492,459.553 388.707,467.742C377.745,479.278 365.346,487.027 357.859,487.027C356.958,487.027 356.137,486.913 355.406,486.681C347.278,484.148 340.585,472.415 344.182,455.684C347.971,438.591 352.335,415.343 351.629,401.635C351.466,398.523 351.191,395.133 350.924,391.855C350.425,385.728 349.685,376.622 350.449,373.92C350.6,373.849 350.768,373.789 350.954,373.737C350.986,381.573 352.688,397.204 365.188,402.654C368.913,404.279 373.17,405.102 377.84,405.102C390.361,405.102 404.254,398.961 409.945,393.269C413.296,389.92 416.114,385.819 418.088,382.572C418.519,383.836 418.785,385.488 418.645,387.616C417.901,399.174 423.518,414.507 434.208,420.158L435.764,420.977C439.571,422.973 449.684,428.284 449.847,430.801C449.842,430.801 449.758,431.097 449.194,431.621Z" style="fill-rule:nonzero;"/>
    </g>
</svg>
